<svg width="24" height="24" viewBox="0 0 24 24" fill="none" xmlns="http://www.w3.org/2000/svg">
<rect x="0.00195312" y="0.5" width="23.5" height="23" rx="11.5" fill="current"/>
<path d="M12.502 15.9393L15.2216 13.2197C15.5145 12.9268 15.9894 12.9268 16.2823 13.2197C16.5752 13.5126 16.5752 13.9874 16.2823 14.2803L12.2823 18.2803C11.9894 18.5732 11.5145 18.5732 11.2216 18.2803L7.22162 14.2803C6.92873 13.9874 6.92873 13.5126 7.22162 13.2197C7.51452 12.9268 7.98939 12.9268 8.28228 13.2197L11.002 15.9393L11.002 6.25C11.002 5.83579 11.3377 5.5 11.752 5.5C12.1662 5.5 12.502 5.83579 12.502 6.25L12.502 15.9393Z" fill="#2E2E2E"/>
</svg>
