<svg width="38" height="44" viewBox="0 0 38 44" fill="none" xmlns="http://www.w3.org/2000/svg">
<path d="M29.1672 6.69854C29.0109 8.29975 30.1823 9.72444 31.7835 9.88068C33.3847 10.0369 34.8094 8.86555 34.9656 7.26435C35.1219 5.66314 33.9505 4.23845 32.3493 4.08221C30.7481 3.92596 29.3234 5.09734 29.1672 6.69854ZM27.876 31.9192C27.7198 33.5204 28.8912 34.9451 30.4924 35.1013C32.0936 35.2575 33.5183 34.0862 33.6745 32.485C33.8308 30.8838 32.6594 29.4591 31.0582 29.3028C29.457 29.1466 28.0323 30.3179 27.876 31.9192ZM31.5209 6.95352L30.2298 32.1741L31.3208 32.23L32.6119 7.00937L31.5209 6.95352Z" fill="#FF6262"/>
<path d="M8.59746 23.4648C7.48546 21.4189 9.71676 20.6479 10.0578 20.4625L6.7738 20.9222L8.59746 23.4648Z" fill="current"/>
<path d="M15.0693 34.9659C15.9186 35.7159 18.0477 35.3664 18.474 35.1348L15.6995 38.1572L15.0693 34.9659Z" fill="current"/>
<path d="M5.24239 20.4776L4.58726 20.7956L4.64414 20.9128L4.73809 21.003L5.24239 20.4776ZM32.2013 18.1324L32.6454 17.5553L32.6454 17.5553L32.2013 18.1324ZM32.1921 18.1503L31.8443 17.5104L31.8443 17.5104L32.1921 18.1503ZM6.23183 20.7751L6.15046 20.0514L4.6933 20.2152L5.70439 21.2772L6.23183 20.7751ZM15.8691 38.5067L15.1609 38.6762L15.507 40.1226L16.4373 38.9623L15.8691 38.5067ZM8.59746 23.4648L8.00569 23.8893L9.23731 23.1171L8.59746 23.4648ZM10.0578 20.4625L10.4055 21.1024L9.9568 19.7413L10.0578 20.4625ZM6.7738 20.9222L6.67285 20.201L5.48007 20.368L6.18203 21.3467L6.7738 20.9222ZM15.0693 34.9659L15.5513 34.42L13.9378 32.9953L14.3548 35.107L15.0693 34.9659ZM18.474 35.1348L19.0105 35.6272L18.1262 34.4949L18.474 35.1348ZM15.6995 38.1572L14.985 38.2983L15.2636 39.709L16.2359 38.6497L15.6995 38.1572ZM5.89752 20.1595C6.03283 20.4383 5.95804 20.712 5.84715 20.8764C5.7618 21.003 5.65967 21.0659 5.63173 21.0828C5.59121 21.1074 5.55886 21.1209 5.54678 21.1258C5.53216 21.1317 5.5228 21.1346 5.52156 21.135C5.51959 21.1356 5.52858 21.1328 5.55357 21.1271C5.5771 21.1217 5.60862 21.1151 5.64917 21.1075C5.81538 21.0761 6.07815 21.0364 6.43391 20.9897C7.14065 20.8969 8.16646 20.7822 9.41132 20.6542C11.8988 20.3985 15.2376 20.0921 18.5946 19.8043C21.9515 19.5165 25.3225 19.2476 27.8741 19.0671C29.1506 18.9768 30.218 18.9089 30.9746 18.8717C31.3542 18.853 31.6482 18.8425 31.8489 18.8403C31.9509 18.8392 32.0169 18.8404 32.0535 18.8424C32.0735 18.8435 32.0696 18.8441 32.0522 18.8413C32.0439 18.84 32.0175 18.8356 31.982 18.8251C31.9618 18.8192 31.8624 18.7905 31.7572 18.7096L32.6454 17.5553C32.535 17.4703 32.4271 17.4379 32.3951 17.4285C32.3479 17.4145 32.3067 17.407 32.2804 17.4028C32.2269 17.3943 32.1746 17.3904 32.1339 17.3881C32.0493 17.3835 31.9457 17.3826 31.833 17.3839C31.6041 17.3864 31.288 17.398 30.9031 17.417C30.1307 17.4549 29.0511 17.5237 27.7713 17.6143C25.2103 17.7954 21.8316 18.0649 18.4702 18.3531C15.109 18.6413 11.7612 18.9485 9.26238 19.2054C8.01411 19.3337 6.97187 19.45 6.24426 19.5456C5.88284 19.5931 5.58685 19.637 5.37881 19.6763C5.27988 19.6949 5.17488 19.7173 5.08667 19.7449C5.05217 19.7557 4.96555 19.7834 4.87652 19.8374C4.83822 19.8606 4.72892 19.9296 4.63964 20.062C4.52483 20.2322 4.44934 20.5115 4.58726 20.7956L5.89752 20.1595ZM31.7572 18.7096C31.6896 18.6576 31.5699 18.5456 31.5099 18.3555C31.4431 18.1437 31.4848 17.9464 31.5565 17.8072C31.6189 17.686 31.6999 17.6132 31.7393 17.581C31.7837 17.5448 31.8228 17.5221 31.8443 17.5104L32.5398 18.7901C32.5566 18.781 32.7404 18.6895 32.8514 18.474C32.9245 18.3319 32.9666 18.1317 32.8989 17.9172C32.8381 17.7244 32.7163 17.6098 32.6454 17.5553L31.7572 18.7096ZM32.1921 18.1503C31.6119 17.7101 31.6118 17.7102 31.6117 17.7104C31.6116 17.7106 31.6114 17.7108 31.6111 17.7111C31.6106 17.7118 31.6098 17.7128 31.6088 17.7142C31.6068 17.7169 31.6037 17.7209 31.5997 17.7262C31.5916 17.7369 31.5795 17.7528 31.5636 17.7738C31.5317 17.8158 31.4844 17.8781 31.4227 17.9594C31.2994 18.1219 31.1184 18.3603 30.8882 18.6635C30.4278 19.2699 29.7701 20.1356 28.9813 21.1729C27.4037 23.2474 25.3019 26.008 23.2045 28.7522C21.1068 31.4967 19.0147 34.2236 17.4562 36.2315C16.6764 37.236 16.0325 38.0576 15.5889 38.6108C15.3659 38.889 15.1988 39.0925 15.0921 39.2164C15.0659 39.2468 15.0451 39.2703 15.0293 39.2876C15.0122 39.3064 15.0063 39.312 15.0086 39.3099C15.0095 39.309 15.0191 39.2997 15.035 39.2866C15.0408 39.2818 15.0926 39.238 15.1725 39.2001C15.2082 39.1832 15.312 39.1363 15.4556 39.1313C15.6299 39.1252 15.8859 39.1861 16.0624 39.4225C16.2046 39.6128 16.2078 39.8071 16.2063 39.8718C16.2045 39.9524 16.1893 40.0137 16.1821 40.0403L14.7761 39.6601C14.7678 39.6907 14.7521 39.7554 14.7502 39.8386C14.7486 39.906 14.7523 40.1022 14.8954 40.2939C15.0728 40.5316 15.3303 40.5931 15.5066 40.5869C15.6522 40.5818 15.7585 40.5342 15.7971 40.5159C15.8831 40.4751 15.9428 40.4258 15.9586 40.4128C15.9845 40.3916 16.006 40.3714 16.0208 40.3571C16.0748 40.305 16.1372 40.2348 16.1953 40.1673C16.3201 40.0226 16.5008 39.8019 16.7252 39.522C17.1764 38.9593 17.8262 38.1302 18.6067 37.1246C20.1687 35.1122 22.2636 32.3818 24.3617 29.6366C26.4601 26.8911 28.5627 24.1296 30.1407 22.0545C30.9297 21.0169 31.5876 20.1509 32.0482 19.5443C32.2785 19.241 32.4595 19.0025 32.583 18.8399C32.6447 18.7586 32.692 18.6962 32.7239 18.6542C32.7399 18.6331 32.752 18.6172 32.7601 18.6065C32.7641 18.6012 32.7672 18.5971 32.7692 18.5944C32.7702 18.5931 32.771 18.5921 32.7715 18.5914C32.7718 18.5911 32.772 18.5908 32.7721 18.5906C32.7722 18.5905 32.7723 18.5904 32.1921 18.1503ZM16.1961 39.723L14.1545 28.2163L12.7204 28.4708L14.762 39.9774L16.1961 39.723ZM13.9417 27.8182L5.74668 19.9522L4.73809 21.003L12.9331 28.869L13.9417 27.8182ZM13.7852 28.9834L31.5169 19.3461L30.8213 18.0664L13.0897 27.7037L13.7852 28.9834ZM31.5169 19.3461L32.5399 18.7901L31.8443 17.5104L30.8213 18.0664L31.5169 19.3461ZM5.24239 20.4776C5.23418 21.2058 5.23423 21.2058 5.23428 21.2058C5.23431 21.2058 5.23437 21.2058 5.23443 21.2058C5.23455 21.2058 5.2347 21.2058 5.23488 21.2058C5.23526 21.2058 5.23577 21.2058 5.23642 21.2058C5.23773 21.2058 5.2396 21.2058 5.24201 21.2059C5.24684 21.2059 5.25388 21.206 5.26307 21.2061C5.28144 21.2062 5.30842 21.2064 5.34357 21.2066C5.41387 21.2069 5.51687 21.2072 5.64909 21.2069C5.9135 21.2063 6.29497 21.2036 6.76567 21.1947C7.70659 21.1771 9.00662 21.1353 10.4426 21.0384L10.3446 19.5852C8.93801 19.6801 7.66243 19.7212 6.73838 19.7385C6.27661 19.7471 5.90325 19.7498 5.64597 19.7504C5.51734 19.7507 5.41777 19.7504 5.35071 19.7501C5.31718 19.7499 5.29178 19.7497 5.27495 19.7496C5.26654 19.7495 5.26026 19.7495 5.25619 19.7494C5.25415 19.7494 5.25266 19.7494 5.25172 19.7494C5.25126 19.7494 5.25093 19.7494 5.25074 19.7494C5.25064 19.7494 5.25058 19.7494 5.25056 19.7494C5.25055 19.7494 5.25056 19.7494 5.25055 19.7494C5.25057 19.7494 5.25059 19.7494 5.24239 20.4776ZM10.4426 21.0384C15.7369 20.6811 24.4968 20.0597 31.2367 19.4314L31.1015 17.9811C24.3816 18.6076 15.6378 19.2279 10.3446 19.5852L10.4426 21.0384ZM30.5974 18.2551C26.7269 23.1601 21.9256 29.512 18.7094 33.8011L19.8747 34.6749C23.0899 30.3871 27.8822 24.0473 31.7408 19.1574L30.5974 18.2551ZM18.7094 33.8011C17.6278 35.2435 16.6655 36.66 15.9743 37.7147C15.6284 38.2424 15.3498 38.6806 15.1572 38.9873C15.061 39.1407 14.9862 39.2613 14.9353 39.3439C14.9098 39.3852 14.8903 39.417 14.8771 39.4386C14.8705 39.4495 14.8654 39.4578 14.862 39.4634C14.8602 39.4663 14.8589 39.4684 14.858 39.47C14.8575 39.4707 14.8572 39.4713 14.8569 39.4717C14.8568 39.4719 14.8567 39.4721 14.8566 39.4722C14.8566 39.4723 14.8565 39.4724 14.8565 39.4724C14.8565 39.4725 14.8564 39.4725 15.4791 39.8502C16.1017 40.2279 16.1017 40.2279 16.1017 40.2279C16.1017 40.2279 16.1017 40.2279 16.1017 40.2279C16.1018 40.2279 16.1018 40.2278 16.1019 40.2276C16.102 40.2274 16.1023 40.227 16.1026 40.2264C16.1033 40.2252 16.1045 40.2234 16.106 40.2209C16.109 40.216 16.1136 40.2084 16.1197 40.1984C16.1321 40.1782 16.1506 40.1479 16.1751 40.1082C16.2241 40.0287 16.2968 39.9115 16.3909 39.7616C16.579 39.4618 16.8525 39.0318 17.1925 38.5131C17.873 37.4748 18.8172 36.0852 19.8747 34.6749L18.7094 33.8011ZM6.23183 20.7751C6.31319 21.4988 6.3132 21.4988 6.31321 21.4988C6.31322 21.4988 6.31324 21.4988 6.31327 21.4988C6.31332 21.4987 6.31339 21.4987 6.31349 21.4987C6.31369 21.4987 6.31399 21.4987 6.3144 21.4986C6.31521 21.4985 6.31642 21.4984 6.31803 21.4982C6.32125 21.4979 6.32608 21.4973 6.33249 21.4966C6.3453 21.4952 6.36443 21.493 6.38967 21.4902C6.44014 21.4845 6.51504 21.4761 6.61272 21.4652C6.80808 21.4433 7.09454 21.4112 7.45889 21.3705C8.18757 21.2892 9.22776 21.1734 10.4737 21.0356L10.3136 19.5879C9.06709 19.7258 8.02639 19.8416 7.29728 19.923C6.93272 19.9637 6.64606 19.9958 6.45051 20.0177C6.35274 20.0287 6.27775 20.0371 6.22719 20.0428C6.20191 20.0456 6.18274 20.0478 6.16988 20.0492C6.16345 20.0499 6.1586 20.0505 6.15536 20.0508C6.15373 20.051 6.15251 20.0511 6.15169 20.0512C6.15129 20.0513 6.15098 20.0513 6.15077 20.0513C6.15067 20.0514 6.15059 20.0514 6.15054 20.0514C6.15051 20.0514 6.15049 20.0514 6.15048 20.0514C6.15047 20.0514 6.15046 20.0514 6.23183 20.7751ZM10.4737 21.0356C14.1089 20.6336 19.4936 20.0447 24.0014 19.5785C26.2558 19.3454 28.2879 19.1432 29.7714 19.0105C30.514 18.9441 31.1138 18.8955 31.5335 18.8691C31.7448 18.8557 31.9013 18.8486 32.0044 18.8471C32.0577 18.8463 32.0834 18.8472 32.0899 18.8476C32.0943 18.8479 32.0782 18.8472 32.051 18.8423C32.0373 18.8399 32.0096 18.8344 31.9744 18.8234C31.9458 18.8144 31.8732 18.7899 31.792 18.7347L32.6107 17.5301C32.4674 17.4328 32.3226 17.4113 32.3068 17.4085C32.258 17.3998 32.2135 17.396 32.183 17.3941C32.1198 17.39 32.0497 17.3897 31.9823 17.3907C31.8441 17.3928 31.6601 17.4017 31.4419 17.4154C31.0026 17.4431 30.3875 17.4931 29.6416 17.5598C28.1478 17.6934 26.1076 17.8964 23.8516 18.1297C19.3385 18.5965 13.9496 19.1858 10.3136 19.5879L10.4737 21.0356ZM13.9649 27.8414L6.75927 20.2729L5.70439 21.2772L12.91 28.8457L13.9649 27.8414ZM6.23183 20.7751C6.28679 21.5012 6.28685 21.5012 6.28696 21.5012C6.28708 21.5012 6.28725 21.5012 6.28747 21.5012C6.28792 21.5012 6.2886 21.5011 6.28949 21.501C6.29127 21.5009 6.29394 21.5007 6.29748 21.5004C6.30455 21.4999 6.31512 21.4991 6.32911 21.498C6.35709 21.4959 6.39874 21.4927 6.4535 21.4886C6.56301 21.4802 6.72494 21.4679 6.93467 21.4519C7.35414 21.4198 7.96485 21.3728 8.73 21.3135C10.2603 21.1948 12.4084 21.0266 14.8799 20.8282C19.8221 20.4314 26.0601 19.9139 31.2367 19.4314L31.1015 17.9811C25.9344 18.4628 19.7038 18.9797 14.7633 19.3763C12.2934 19.5746 10.1467 19.7428 8.6174 19.8613C7.85278 19.9206 7.24255 19.9675 6.82353 19.9996C6.61401 20.0156 6.4523 20.028 6.34299 20.0363C6.28834 20.0404 6.24678 20.0436 6.2189 20.0457C6.20496 20.0468 6.19444 20.0476 6.18741 20.0481C6.1839 20.0484 6.18125 20.0486 6.17949 20.0487C6.17861 20.0488 6.17795 20.0488 6.17751 20.0488C6.1773 20.0489 6.17713 20.0489 6.17702 20.0489C6.17692 20.0489 6.17686 20.0489 6.23183 20.7751ZM31.6239 17.6947L18.7239 33.7824L19.8602 34.6936L32.7602 18.6058L31.6239 17.6947ZM18.7239 33.7824L15.301 38.0512L16.4373 38.9623L19.8602 34.6936L18.7239 33.7824ZM16.5774 38.3373L14.1457 28.1741L12.7292 28.513L15.1609 38.6762L16.5774 38.3373ZM30.5974 18.2551C27.3768 22.3365 23.5496 27.2896 20.5284 31.221C19.0177 33.187 17.7081 34.898 16.7761 36.1176C16.3102 36.7274 15.9386 37.2143 15.6835 37.5488C15.556 37.7161 15.4575 37.8453 15.391 37.9326C15.3577 37.9763 15.3324 38.0095 15.3154 38.0319C15.3069 38.043 15.3005 38.0515 15.2962 38.0571C15.294 38.0599 15.2924 38.0621 15.2913 38.0635C15.2908 38.0642 15.2904 38.0647 15.2901 38.0651C15.29 38.0653 15.2899 38.0654 15.2898 38.0655C15.2897 38.0656 15.2897 38.0656 15.8691 38.5067C16.4486 38.9478 16.4486 38.9478 16.4487 38.9477C16.4488 38.9476 16.4489 38.9475 16.449 38.9473C16.4493 38.947 16.4497 38.9464 16.4502 38.9457C16.4513 38.9443 16.4529 38.9422 16.455 38.9394C16.4593 38.9338 16.4657 38.9254 16.4741 38.9143C16.4911 38.8921 16.5163 38.8589 16.5496 38.8153C16.616 38.7281 16.7143 38.5991 16.8417 38.432C17.0965 38.0978 17.4678 37.6113 17.9335 37.0019C18.8648 35.7832 20.1735 34.0732 21.6833 32.1085C24.7034 28.1784 28.5261 23.2313 31.7408 19.1574L30.5974 18.2551ZM9.23731 23.1171C9.01885 22.7151 9.00013 22.4455 9.02764 22.2738C9.05582 22.0979 9.14714 21.9348 9.30329 21.7752C9.66263 21.4079 10.1067 21.2648 10.4055 21.1024L9.70999 19.8227C9.71164 19.8218 9.70908 19.8232 9.6998 19.8278C9.69097 19.8321 9.67932 19.8376 9.66363 19.845C9.61712 19.8668 9.60716 19.8711 9.54277 19.9012C9.44564 19.9467 9.31996 20.007 9.18158 20.0823C8.90932 20.2302 8.56368 20.4485 8.26218 20.7567C7.95688 21.0687 7.67756 21.4936 7.58947 22.0434C7.5007 22.5975 7.62007 23.1916 7.95761 23.8126L9.23731 23.1171ZM9.9568 19.7413L6.67285 20.201L6.87476 21.6434L10.1587 21.1837L9.9568 19.7413ZM6.18203 21.3467L8.00569 23.8893L9.18924 23.0404L7.36558 20.4978L6.18203 21.3467ZM14.5873 35.5118C14.9287 35.8133 15.3556 35.9703 15.7485 36.0537C16.1483 36.1385 16.5693 36.1589 16.954 36.1463C17.3411 36.1337 17.7128 36.087 18.0221 36.0262C18.3062 35.9703 18.6119 35.8887 18.8217 35.7746L18.1262 34.4949C18.1372 34.4889 18.1122 34.5028 18.0305 34.5274C17.9569 34.5495 17.8591 34.5738 17.7412 34.597C17.5048 34.6435 17.2112 34.6807 16.9065 34.6906C16.5995 34.7006 16.3024 34.6823 16.0507 34.6289C15.7923 34.5741 15.6345 34.4935 15.5513 34.42L14.5873 35.5118ZM17.9375 34.6423L15.163 37.6647L16.2359 38.6497L19.0105 35.6272L17.9375 34.6423ZM16.4139 38.0161L15.7837 34.8249L14.3548 35.107L14.985 38.2983L16.4139 38.0161Z" fill="current"/>
</svg>
